# xmcd
#
# Track frame offsets:
#	182
#	11105
#	23730
#	35472
#	46520
#	61542
#	73245
#	84965
#	96655
#	108755
#	119577
#	130047
#	140330
#	150327
#	165845
#
# Disc length: 2373 seconds
#
# Revision: 1
# Processed by: cddbd v1.5.2PL0 Copyright (c) Steve Scherf et al.
# Submitted via: EasyCDDAExtractor 16.0.6.1
#
DISCID=b009430f
DTITLE=canzoni italiane - Canzoni Italiane - CD69 - Scusi, Parla Italiano
DYEAR=1900
DGENRE=Blues
TTITLE0=Sedaka - La Terza Luna
TTITLE1=F. Hardy - L'Età dell'Amore
TTITLE2=R. Anthony - Cin Cin
TTITLE3=P. Anka - Piangerò per Te
TTITLE4=A. Barriere - E piu ti Amo
TTITLE5=P. Clarck - Chariot
TTITLE6=M. Laforet - La Vendemmia dell'Amore
TTITLE7=N. Sedaka - Il re dei Pagliacci
TTITLE8=G. Pitney - Quando vedrai la mia ragazza
TTITLE9=C. Francis - Il mio Cuore e Così
TTITLE10=N. Sedaka - Un Giorno Inutile
TTITLE11=G. Bacaud - La Vela Bianca
TTITLE12=P. Anka - Ogni Giorno
TTITLE13=R. Anthony - E il Treno Va
TTITLE14=Ben E. King - Amore Quando
EXTD=
EXTT0=
EXTT1=
EXTT2=
EXTT3=
EXTT4=
EXTT5=
EXTT6=
EXTT7=
EXTT8=
EXTT9=
EXTT10=
EXTT11=
EXTT12=
EXTT13=
EXTT14=
PLAYORDER=
